<mxfile host="app.diagrams.net" agent="Mozilla/5.0 (X11; Linux x86_64) AppleWebKit/537.36 (KHTML, like Gecko) Chrome/118.0.5615.213 Safari/537.36" version="26.1.3">
  <diagram name="Page-1" id="fauvUzBd_hI_L1piAXxF">
    <mxGraphModel dx="878" dy="561" grid="1" gridSize="10" guides="1" tooltips="1" connect="1" arrows="1" fold="1" page="1" pageScale="1" pageWidth="4681" pageHeight="3300" math="0" shadow="0">
      <root>
        <mxCell id="0" />
        <mxCell id="1" parent="0" />
        <mxCell id="kCJW0ltufQX8bdZsabFZ-1" value="Dámaso Alonso" style="swimlane;fontStyle=0;childLayout=stackLayout;horizontal=1;startSize=26;strokeColor=#E5DFEC;strokeWidth=3;fillColor=none;horizontalStack=0;resizeParent=1;resizeParentMax=0;resizeLast=0;collapsible=1;marginBottom=0;whiteSpace=wrap;html=1;" parent="1" vertex="1">
          <mxGeometry x="600" y="430" width="100" height="52" as="geometry" />
        </mxCell>
        <mxCell id="kCJW0ltufQX8bdZsabFZ-2" value="Person" style="text;strokeColor=#E5DFEC;strokeWidth=3;fillColor=none;align=center;verticalAlign=top;spacingLeft=4;spacingRight=4;overflow=hidden;rotatable=0;points=[[0,0.5],[1,0.5]];portConstraint=eastwest;whiteSpace=wrap;html=1;" parent="kCJW0ltufQX8bdZsabFZ-1" vertex="1">
          <mxGeometry y="26" width="100" height="26" as="geometry" />
        </mxCell>
        <mxCell id="kCJW0ltufQX8bdZsabFZ-3" value="Research at the Archivo Histórico Nacional" style="swimlane;fontStyle=0;childLayout=stackLayout;horizontal=1;startSize=40;strokeColor=#FFFAA0;strokeWidth=3;fillColor=none;horizontalStack=0;resizeParent=1;resizeParentMax=0;resizeLast=0;collapsible=1;marginBottom=0;whiteSpace=wrap;html=1;" parent="1" vertex="1">
          <mxGeometry x="870" y="300" width="190" height="66" as="geometry" />
        </mxCell>
        <mxCell id="kCJW0ltufQX8bdZsabFZ-4" value="Activity" style="text;strokeColor=#FFFAA0;strokeWidth=3;fillColor=none;align=center;verticalAlign=top;spacingLeft=4;spacingRight=4;overflow=hidden;rotatable=0;points=[[0,0.5],[1,0.5]];portConstraint=eastwest;whiteSpace=wrap;html=1;" parent="kCJW0ltufQX8bdZsabFZ-3" vertex="1">
          <mxGeometry y="40" width="190" height="26" as="geometry" />
        </mxCell>
        <mxCell id="kCJW0ltufQX8bdZsabFZ-7" value="" style="endArrow=classic;html=1;rounded=0;exitX=0;exitY=0.25;exitDx=0;exitDy=0;entryX=0.75;entryY=0;entryDx=0;entryDy=0;" parent="1" source="kCJW0ltufQX8bdZsabFZ-3" target="kCJW0ltufQX8bdZsabFZ-1" edge="1">
          <mxGeometry relative="1" as="geometry">
            <mxPoint x="550" y="450" as="sourcePoint" />
            <mxPoint x="760" y="410" as="targetPoint" />
          </mxGeometry>
        </mxCell>
        <mxCell id="kCJW0ltufQX8bdZsabFZ-8" value="is or was performed by" style="edgeLabel;resizable=0;html=1;;align=center;verticalAlign=middle;" parent="kCJW0ltufQX8bdZsabFZ-7" connectable="0" vertex="1">
          <mxGeometry relative="1" as="geometry" />
        </mxCell>
        <mxCell id="kCJW0ltufQX8bdZsabFZ-9" value="Expediente de investigación del Archivo Histórico Nacional correspondiente a Dámaso Alonso Fernández de las Redondas (Research file of the Archivo Histórico Nacional corresponding to Dámaso Alonso)" style="swimlane;fontStyle=0;childLayout=stackLayout;horizontal=1;startSize=60;strokeColor=#DAEEF3;strokeWidth=3;fillColor=none;horizontalStack=0;resizeParent=1;resizeParentMax=0;resizeLast=0;collapsible=1;marginBottom=0;whiteSpace=wrap;html=1;" parent="1" vertex="1">
          <mxGeometry x="1160" y="410" width="420" height="86" as="geometry" />
        </mxCell>
        <mxCell id="kCJW0ltufQX8bdZsabFZ-10" value="Record" style="text;strokeColor=#DAEEF3;strokeWidth=3;fillColor=none;align=center;verticalAlign=top;spacingLeft=4;spacingRight=4;overflow=hidden;rotatable=0;points=[[0,0.5],[1,0.5]];portConstraint=eastwest;whiteSpace=wrap;html=1;" parent="kCJW0ltufQX8bdZsabFZ-9" vertex="1">
          <mxGeometry y="60" width="420" height="26" as="geometry" />
        </mxCell>
        <mxCell id="kCJW0ltufQX8bdZsabFZ-11" value="" style="endArrow=classic;html=1;rounded=0;entryX=1.04;entryY=-0.115;entryDx=0;entryDy=0;entryPerimeter=0;exitX=0;exitY=0.5;exitDx=0;exitDy=0;" parent="1" source="kCJW0ltufQX8bdZsabFZ-9" target="kCJW0ltufQX8bdZsabFZ-2" edge="1">
          <mxGeometry relative="1" as="geometry">
            <mxPoint x="1010" y="390" as="sourcePoint" />
            <mxPoint x="1210" y="390" as="targetPoint" />
          </mxGeometry>
        </mxCell>
        <mxCell id="kCJW0ltufQX8bdZsabFZ-12" value="has creator" style="edgeLabel;resizable=0;html=1;;align=center;verticalAlign=middle;" parent="kCJW0ltufQX8bdZsabFZ-11" connectable="0" vertex="1">
          <mxGeometry relative="1" as="geometry" />
        </mxCell>
        <mxCell id="kCJW0ltufQX8bdZsabFZ-13" value="" style="endArrow=classic;html=1;rounded=0;exitX=1;exitY=0.25;exitDx=0;exitDy=0;entryX=0.355;entryY=0.012;entryDx=0;entryDy=0;entryPerimeter=0;" parent="1" source="kCJW0ltufQX8bdZsabFZ-3" target="kCJW0ltufQX8bdZsabFZ-9" edge="1">
          <mxGeometry relative="1" as="geometry">
            <mxPoint x="1160" y="317" as="sourcePoint" />
            <mxPoint x="975" y="430" as="targetPoint" />
          </mxGeometry>
        </mxCell>
        <mxCell id="kCJW0ltufQX8bdZsabFZ-14" value="documented by" style="edgeLabel;resizable=0;html=1;;align=center;verticalAlign=middle;" parent="kCJW0ltufQX8bdZsabFZ-13" connectable="0" vertex="1">
          <mxGeometry relative="1" as="geometry" />
        </mxCell>
        <mxCell id="kCJW0ltufQX8bdZsabFZ-15" value="" style="endArrow=classic;html=1;rounded=0;exitX=-0.016;exitY=0.121;exitDx=0;exitDy=0;exitPerimeter=0;" parent="1" source="kCJW0ltufQX8bdZsabFZ-3" target="kCJW0ltufQX8bdZsabFZ-19" edge="1">
          <mxGeometry relative="1" as="geometry">
            <mxPoint x="859" y="300" as="sourcePoint" />
            <mxPoint x="700" y="210" as="targetPoint" />
          </mxGeometry>
        </mxCell>
        <mxCell id="kCJW0ltufQX8bdZsabFZ-16" value="affects or affected" style="edgeLabel;resizable=0;html=1;;align=center;verticalAlign=middle;" parent="kCJW0ltufQX8bdZsabFZ-15" connectable="0" vertex="1">
          <mxGeometry relative="1" as="geometry" />
        </mxCell>
        <mxCell id="kCJW0ltufQX8bdZsabFZ-17" value="Miguel de Cervantes Saavedra" style="swimlane;fontStyle=0;childLayout=stackLayout;horizontal=1;startSize=26;strokeColor=#E5DFEC;strokeWidth=3;fillColor=none;horizontalStack=0;resizeParent=1;resizeParentMax=0;resizeLast=0;collapsible=1;marginBottom=0;whiteSpace=wrap;html=1;" parent="1" vertex="1">
          <mxGeometry x="290" y="350" width="170" height="52" as="geometry" />
        </mxCell>
        <mxCell id="kCJW0ltufQX8bdZsabFZ-18" value="Person" style="text;strokeColor=#E5DFEC;strokeWidth=3;fillColor=none;align=center;verticalAlign=top;spacingLeft=4;spacingRight=4;overflow=hidden;rotatable=0;points=[[0,0.5],[1,0.5]];portConstraint=eastwest;whiteSpace=wrap;html=1;" parent="kCJW0ltufQX8bdZsabFZ-17" vertex="1">
          <mxGeometry y="26" width="170" height="26" as="geometry" />
        </mxCell>
        <mxCell id="kCJW0ltufQX8bdZsabFZ-19" value="Archivo Histórico Nacional" style="swimlane;fontStyle=0;childLayout=stackLayout;horizontal=1;startSize=26;strokeColor=#C6D9F1;strokeWidth=3;fillColor=none;horizontalStack=0;resizeParent=1;resizeParentMax=0;resizeLast=0;collapsible=1;marginBottom=0;whiteSpace=wrap;html=1;" parent="1" vertex="1">
          <mxGeometry x="640" y="197" width="200" height="52" as="geometry" />
        </mxCell>
        <mxCell id="kCJW0ltufQX8bdZsabFZ-20" value="Corporate Body" style="text;strokeColor=#C6D9F1;strokeWidth=3;fillColor=none;align=center;verticalAlign=top;spacingLeft=4;spacingRight=4;overflow=hidden;rotatable=0;points=[[0,0.5],[1,0.5]];portConstraint=eastwest;whiteSpace=wrap;html=1;" parent="kCJW0ltufQX8bdZsabFZ-19" vertex="1">
          <mxGeometry y="26" width="200" height="26" as="geometry" />
        </mxCell>
        <mxCell id="kCJW0ltufQX8bdZsabFZ-21" value="Cervantes&#39; memorial on the printing of El Quixote" style="swimlane;fontStyle=0;childLayout=stackLayout;horizontal=1;startSize=40;strokeColor=#DAEEF3;strokeWidth=3;fillColor=none;horizontalStack=0;resizeParent=1;resizeParentMax=0;resizeLast=0;collapsible=1;marginBottom=0;whiteSpace=wrap;html=1;" parent="1" vertex="1">
          <mxGeometry x="290" y="190" width="180" height="66" as="geometry" />
        </mxCell>
        <mxCell id="kCJW0ltufQX8bdZsabFZ-22" value="Record" style="text;strokeColor=#DAEEF3;strokeWidth=3;fillColor=none;align=center;verticalAlign=top;spacingLeft=4;spacingRight=4;overflow=hidden;rotatable=0;points=[[0,0.5],[1,0.5]];portConstraint=eastwest;whiteSpace=wrap;html=1;" parent="kCJW0ltufQX8bdZsabFZ-21" vertex="1">
          <mxGeometry y="40" width="180" height="26" as="geometry" />
        </mxCell>
        <mxCell id="kCJW0ltufQX8bdZsabFZ-23" value="" style="endArrow=classic;html=1;rounded=0;exitX=1;exitY=0.5;exitDx=0;exitDy=0;entryX=0;entryY=-0.038;entryDx=0;entryDy=0;entryPerimeter=0;" parent="1" source="kCJW0ltufQX8bdZsabFZ-21" target="kCJW0ltufQX8bdZsabFZ-20" edge="1">
          <mxGeometry relative="1" as="geometry">
            <mxPoint x="490" y="222" as="sourcePoint" />
            <mxPoint x="685" y="109" as="targetPoint" />
          </mxGeometry>
        </mxCell>
        <mxCell id="kCJW0ltufQX8bdZsabFZ-24" value="has or had holder" style="edgeLabel;resizable=0;html=1;;align=center;verticalAlign=middle;" parent="kCJW0ltufQX8bdZsabFZ-23" connectable="0" vertex="1">
          <mxGeometry relative="1" as="geometry" />
        </mxCell>
        <mxCell id="kCJW0ltufQX8bdZsabFZ-25" value="" style="endArrow=classic;html=1;rounded=0;exitX=0.588;exitY=0.019;exitDx=0;exitDy=0;entryX=0.494;entryY=1;entryDx=0;entryDy=0;entryPerimeter=0;exitPerimeter=0;" parent="1" edge="1">
          <mxGeometry relative="1" as="geometry">
            <mxPoint x="380.52000000000004" y="349.99800000000005" as="sourcePoint" />
            <mxPoint x="379.4800000000001" y="255.01" as="targetPoint" />
          </mxGeometry>
        </mxCell>
        <mxCell id="kCJW0ltufQX8bdZsabFZ-26" value="is author of" style="edgeLabel;resizable=0;html=1;;align=center;verticalAlign=middle;" parent="kCJW0ltufQX8bdZsabFZ-25" connectable="0" vertex="1">
          <mxGeometry relative="1" as="geometry" />
        </mxCell>
        <mxCell id="kCJW0ltufQX8bdZsabFZ-27" value="" style="endArrow=classic;html=1;rounded=0;entryX=0.5;entryY=0.885;entryDx=0;entryDy=0;entryPerimeter=0;exitX=0.539;exitY=0.015;exitDx=0;exitDy=0;exitPerimeter=0;" parent="1" source="kCJW0ltufQX8bdZsabFZ-41" target="kCJW0ltufQX8bdZsabFZ-2" edge="1">
          <mxGeometry relative="1" as="geometry">
            <mxPoint x="510" y="650" as="sourcePoint" />
            <mxPoint x="656" y="530.004" as="targetPoint" />
          </mxGeometry>
        </mxCell>
        <mxCell id="kCJW0ltufQX8bdZsabFZ-28" value="first (rdf)" style="edgeLabel;resizable=0;html=1;;align=center;verticalAlign=middle;" parent="kCJW0ltufQX8bdZsabFZ-27" connectable="0" vertex="1">
          <mxGeometry relative="1" as="geometry" />
        </mxCell>
        <mxCell id="kCJW0ltufQX8bdZsabFZ-29" value="Oscillation in the character of Sancho" style="swimlane;fontStyle=0;childLayout=stackLayout;horizontal=1;startSize=26;fillColor=none;horizontalStack=0;resizeParent=1;resizeParentMax=0;resizeLast=0;collapsible=1;marginBottom=0;whiteSpace=wrap;html=1;" parent="1" vertex="1">
          <mxGeometry x="200" y="637" width="170" height="52" as="geometry">
            <mxRectangle x="981" y="570" width="50" height="40" as="alternateBounds" />
          </mxGeometry>
        </mxCell>
        <mxCell id="kCJW0ltufQX8bdZsabFZ-30" value="&lt;div&gt;Academic Article (bibo)&lt;/div&gt;" style="text;strokeColor=none;fillColor=none;align=center;verticalAlign=top;spacingLeft=4;spacingRight=4;overflow=hidden;rotatable=0;points=[[0,0.5],[1,0.5]];portConstraint=eastwest;whiteSpace=wrap;html=1;" parent="kCJW0ltufQX8bdZsabFZ-29" vertex="1">
          <mxGeometry y="26" width="170" height="26" as="geometry" />
        </mxCell>
        <mxCell id="kCJW0ltufQX8bdZsabFZ-33" value="" style="endArrow=classic;html=1;rounded=0;exitX=0;exitY=0.5;exitDx=0;exitDy=0;entryX=0.5;entryY=0;entryDx=0;entryDy=0;" parent="1" source="kCJW0ltufQX8bdZsabFZ-21" target="kCJW0ltufQX8bdZsabFZ-35" edge="1">
          <mxGeometry relative="1" as="geometry">
            <mxPoint x="171.04000000000005" y="444.98800000000006" as="sourcePoint" />
            <mxPoint x="145" y="460" as="targetPoint" />
          </mxGeometry>
        </mxCell>
        <mxCell id="kCJW0ltufQX8bdZsabFZ-34" value="has or had subject" style="edgeLabel;resizable=0;html=1;;align=center;verticalAlign=middle;" parent="kCJW0ltufQX8bdZsabFZ-33" connectable="0" vertex="1">
          <mxGeometry relative="1" as="geometry" />
        </mxCell>
        <mxCell id="kCJW0ltufQX8bdZsabFZ-35" value="Don Quixote" style="swimlane;fontStyle=0;childLayout=stackLayout;horizontal=1;startSize=26;strokeColor=#FBD5B5;fillColor=none;horizontalStack=0;resizeParent=1;resizeParentMax=0;resizeLast=0;collapsible=1;marginBottom=0;whiteSpace=wrap;html=1;" parent="1" vertex="1">
          <mxGeometry x="70" y="440" width="90" height="78" as="geometry" />
        </mxCell>
        <mxCell id="kCJW0ltufQX8bdZsabFZ-36" value="Thing" style="text;strokeColor=#FBD5B5;fillColor=#FBD5B5;align=center;verticalAlign=top;spacingLeft=4;spacingRight=4;overflow=hidden;rotatable=0;points=[[0,0.5],[1,0.5]];portConstraint=eastwest;whiteSpace=wrap;html=1;" parent="kCJW0ltufQX8bdZsabFZ-35" vertex="1">
          <mxGeometry y="26" width="90" height="26" as="geometry" />
        </mxCell>
        <mxCell id="kCJW0ltufQX8bdZsabFZ-37" value="Book (bibo)" style="text;align=center;verticalAlign=top;spacingLeft=4;spacingRight=4;overflow=hidden;rotatable=0;points=[[0,0.5],[1,0.5]];portConstraint=eastwest;whiteSpace=wrap;html=1;" parent="kCJW0ltufQX8bdZsabFZ-35" vertex="1">
          <mxGeometry y="52" width="90" height="26" as="geometry" />
        </mxCell>
        <mxCell id="kCJW0ltufQX8bdZsabFZ-38" value="" style="endArrow=classic;html=1;rounded=0;exitX=0;exitY=0.25;exitDx=0;exitDy=0;entryX=0.567;entryY=1.038;entryDx=0;entryDy=0;entryPerimeter=0;" parent="1" source="kCJW0ltufQX8bdZsabFZ-29" target="kCJW0ltufQX8bdZsabFZ-37" edge="1">
          <mxGeometry relative="1" as="geometry">
            <mxPoint x="335" y="430" as="sourcePoint" />
            <mxPoint x="130" y="540" as="targetPoint" />
          </mxGeometry>
        </mxCell>
        <mxCell id="kCJW0ltufQX8bdZsabFZ-39" value="subject (dublin core)" style="edgeLabel;resizable=0;html=1;;align=center;verticalAlign=middle;" parent="kCJW0ltufQX8bdZsabFZ-38" connectable="0" vertex="1">
          <mxGeometry relative="1" as="geometry" />
        </mxCell>
        <mxCell id="kCJW0ltufQX8bdZsabFZ-41" value="List of authors of &quot;Oscillation in the character of Sancho&quot;" style="swimlane;fontStyle=0;childLayout=stackLayout;horizontal=1;startSize=40;fillColor=none;horizontalStack=0;resizeParent=1;resizeParentMax=0;resizeLast=0;collapsible=1;marginBottom=0;whiteSpace=wrap;html=1;" parent="1" vertex="1">
          <mxGeometry x="525" y="630" width="230" height="66" as="geometry" />
        </mxCell>
        <mxCell id="kCJW0ltufQX8bdZsabFZ-42" value="List (rdf)" style="text;strokeColor=none;fillColor=none;align=center;verticalAlign=top;spacingLeft=4;spacingRight=4;overflow=hidden;rotatable=0;points=[[0,0.5],[1,0.5]];portConstraint=eastwest;whiteSpace=wrap;html=1;" parent="kCJW0ltufQX8bdZsabFZ-41" vertex="1">
          <mxGeometry y="40" width="230" height="26" as="geometry" />
        </mxCell>
        <mxCell id="kCJW0ltufQX8bdZsabFZ-43" value="" style="endArrow=classic;html=1;rounded=0;exitX=1.029;exitY=0;exitDx=0;exitDy=0;entryX=0;entryY=0.5;entryDx=0;entryDy=0;exitPerimeter=0;" parent="1" source="kCJW0ltufQX8bdZsabFZ-30" target="kCJW0ltufQX8bdZsabFZ-41" edge="1">
          <mxGeometry relative="1" as="geometry">
            <mxPoint x="426.0400000000001" y="710.498" as="sourcePoint" />
            <mxPoint x="425.0000000000001" y="615.51" as="targetPoint" />
          </mxGeometry>
        </mxCell>
        <mxCell id="kCJW0ltufQX8bdZsabFZ-44" value="authorList (bibo)" style="edgeLabel;resizable=0;html=1;;align=center;verticalAlign=middle;" parent="kCJW0ltufQX8bdZsabFZ-43" connectable="0" vertex="1">
          <mxGeometry relative="1" as="geometry" />
        </mxCell>
        <mxCell id="kCJW0ltufQX8bdZsabFZ-45" value="" style="endArrow=classic;html=1;rounded=0;exitX=1;exitY=0.5;exitDx=0;exitDy=0;entryX=0.021;entryY=-0.038;entryDx=0;entryDy=0;entryPerimeter=0;" parent="1" source="kCJW0ltufQX8bdZsabFZ-41" target="kCJW0ltufQX8bdZsabFZ-48" edge="1">
          <mxGeometry relative="1" as="geometry">
            <mxPoint x="860" y="712" as="sourcePoint" />
            <mxPoint x="890" y="600" as="targetPoint" />
          </mxGeometry>
        </mxCell>
        <mxCell id="kCJW0ltufQX8bdZsabFZ-46" value="rest (rdf)" style="edgeLabel;resizable=0;html=1;;align=center;verticalAlign=middle;" parent="kCJW0ltufQX8bdZsabFZ-45" connectable="0" vertex="1">
          <mxGeometry relative="1" as="geometry" />
        </mxCell>
        <mxCell id="kCJW0ltufQX8bdZsabFZ-47" value="nil (rdf)" style="swimlane;fontStyle=0;childLayout=stackLayout;horizontal=1;startSize=26;fillColor=none;horizontalStack=0;resizeParent=1;resizeParentMax=0;resizeLast=0;collapsible=1;marginBottom=0;whiteSpace=wrap;html=1;" parent="1" vertex="1">
          <mxGeometry x="905.5" y="560" width="119" height="52" as="geometry" />
        </mxCell>
        <mxCell id="kCJW0ltufQX8bdZsabFZ-48" value="&lt;div&gt;List (rdf)&lt;/div&gt;" style="text;strokeColor=none;fillColor=none;align=center;verticalAlign=top;spacingLeft=4;spacingRight=4;overflow=hidden;rotatable=0;points=[[0,0.5],[1,0.5]];portConstraint=eastwest;whiteSpace=wrap;html=1;" parent="kCJW0ltufQX8bdZsabFZ-47" vertex="1">
          <mxGeometry y="26" width="119" height="26" as="geometry" />
        </mxCell>
        <mxCell id="kCJW0ltufQX8bdZsabFZ-49" value="Research" style="swimlane;fontStyle=0;childLayout=stackLayout;horizontal=1;startSize=26;fillColor=none;horizontalStack=0;resizeParent=1;resizeParentMax=0;resizeLast=0;collapsible=1;marginBottom=0;whiteSpace=wrap;html=1;" parent="1" vertex="1">
          <mxGeometry x="1170" y="204" width="109" height="52" as="geometry" />
        </mxCell>
        <mxCell id="kCJW0ltufQX8bdZsabFZ-50" value="Activity Type&lt;div&gt;&lt;br&gt;&lt;/div&gt;" style="text;strokeColor=none;strokeColor=none;fillColor=none;align=center;verticalAlign=top;spacingLeft=4;spacingRight=4;overflow=hidden;rotatable=0;points=[[0,0.5],[1,0.5]];portConstraint=eastwest;whiteSpace=wrap;html=1;" parent="kCJW0ltufQX8bdZsabFZ-49" vertex="1">
          <mxGeometry y="26" width="109" height="26" as="geometry" />
        </mxCell>
        <mxCell id="kCJW0ltufQX8bdZsabFZ-51" value="" style="endArrow=classic;html=1;rounded=0;entryX=-0.016;entryY=0.154;entryDx=0;entryDy=0;entryPerimeter=0;" parent="1" source="kCJW0ltufQX8bdZsabFZ-3" target="kCJW0ltufQX8bdZsabFZ-50" edge="1">
          <mxGeometry relative="1" as="geometry">
            <mxPoint x="1060" y="279" as="sourcePoint" />
            <mxPoint x="972" y="220" as="targetPoint" />
          </mxGeometry>
        </mxCell>
        <mxCell id="kCJW0ltufQX8bdZsabFZ-52" value="activity type" style="edgeLabel;resizable=0;html=1;;align=center;verticalAlign=middle;" parent="kCJW0ltufQX8bdZsabFZ-51" connectable="0" vertex="1">
          <mxGeometry relative="1" as="geometry" />
        </mxCell>
      </root>
    </mxGraphModel>
  </diagram>
</mxfile>
